<svg width="18" height="18" viewBox="0 0 18 18" fill="none" xmlns="http://www.w3.org/2000/svg">
<g clip-path="url(#clip0_1798_10391)">
<path d="M8.61492 16.777C13.1226 16.777 16.7767 13.1228 16.7767 8.61517C16.7767 4.10753 13.1226 0.453369 8.61492 0.453369C4.10729 0.453369 0.453125 4.10753 0.453125 8.61517C0.453125 13.1228 4.10729 16.777 8.61492 16.777Z" fill="#FEDC00" stroke="black" stroke-width="0.906867"/>
<path d="M5.32031 12.4509V4.32544H11.6467V5.56749H6.80612V7.56404H9.20895C10.1841 7.56404 10.9231 7.76912 11.4261 8.17926C11.9369 8.58167 12.1922 9.1698 12.1922 9.94366C12.1922 10.7407 11.9098 11.3598 11.3449 11.8009C10.7877 12.2342 9.99829 12.4509 8.97679 12.4509H5.32031ZM6.80612 11.2901H8.89554C9.47593 11.2901 9.91703 11.1779 10.2189 10.9535C10.5207 10.7291 10.6716 10.4041 10.6716 9.97849C10.6716 9.14272 10.0796 8.72483 8.89554 8.72483H6.80612V11.2901Z" fill="black"/>
<path d="M8.70703 3.0835V4.71586" stroke="black" stroke-width="1.45099"/>
<path d="M8.70703 12.5149V14.1473" stroke="black" stroke-width="1.45099"/>
</g>
<defs>
<clipPath id="clip0_1798_10391">
<rect width="18" height="18" fill="white"/>
</clipPath>
</defs>
</svg>
